# xmcd
#
# Track frame offsets:
#	182
#	16137
#	28010
#	44277
#	61975
#	78885
#	92920
#	106777
#	122435
#	136802
#	150995
#	163490
#	177787
#	194600
#	211457
#	226527
#	242222
#	261187
#	277042
#	293990
#	313252
#	323990
#
# Disc length: 4582 seconds
#
# Revision: 2
# Processed by: cddbd v1.5.2PL0 Copyright (c) Steve Scherf et al.
# Submitted via: EZCDAudioConverter 4.0.5.1
#
DISCID=3111e416
DTITLE=Emmylou Harris - Anthology: The Warner/Reprise Years 
DYEAR=2001
DGENRE=Country
TTITLE0=Emmylou Harris - Too Far Gone
TTITLE1=Emmylou Harris - If I Could Only Win Your Love
TTITLE2=Emmylou Harris - Boulder to Birmingham
TTITLE3=Emmylou Harris - Together Again
TTITLE4=Emmylou Harris - Here, There and Everywhere
TTITLE5=Emmylou Harris - One of These Days
TTITLE6=Emmylou Harris - Sweet Dreams (live)
TTITLE7=Emmylou Harris - (You Can Never Tell) C'est la Vie
TTITLE8=Emmylou Harris - Making Believe
TTITLE9=Emmylou Harris - Easy From Now On
TTITLE10=Emmylou Harris - To Daddy
TTITLE11=Emmylou Harris - Two More Bottles of Wine
TTITLE12=Emmylou Harris - Save the Last Dance for Me
TTITLE13=Emmylou Harris - Beneath Still Waters
TTITLE14=Emmylou Harris - Blue Kentucky Girl
TTITLE15=Emmylou Harris - Wayfaring Stranger
TTITLE16=Emmylou Harris feat. Roy Orbison - That Lovin' You Feelin' Again
TTITLE17=Emmylou Harris - The Boxer
TTITLE18=Emmylou Harris - Precious Love
TTITLE19=Emmylou Harris - Fools Thin Air
TTITLE20=Emmylou Harris - Mister Sandman
TTITLE21=Emmylou Harris - Colors of Your Heart
EXTD=
EXTT0=
EXTT1=
EXTT2=
EXTT3=
EXTT4=
EXTT5=
EXTT6=
EXTT7=
EXTT8=
EXTT9=
EXTT10=
EXTT11=
EXTT12=
EXTT13=
EXTT14=
EXTT15=
EXTT16=
EXTT17=
EXTT18=
EXTT19=
EXTT20=
EXTT21=
PLAYORDER=
